<mxfile host="app.diagrams.net" modified="2024-03-05T11:53:54.141Z" agent="Mozilla/5.0 (Windows NT 10.0; WOW64) AppleWebKit/537.36 (KHTML, like Gecko) Chrome/86.0.4240.198 Safari/537.36" etag="7sGhDHsbpj4QbIWY-jAX" version="23.1.7" type="github">
  <diagram name="第 1 页" id="nLZ4VMVFWtMFxBLOA02N">
    <mxGraphModel dx="1048" dy="639" grid="0" gridSize="10" guides="1" tooltips="1" connect="1" arrows="1" fold="1" page="1" pageScale="1" pageWidth="4681" pageHeight="3300" math="0" shadow="0">
      <root>
        <mxCell id="0" />
        <mxCell id="1" parent="0" />
        <mxCell id="zSw2SwVHiKAort44ZvVs-26" value="" style="rounded=0;whiteSpace=wrap;html=1;" vertex="1" parent="1">
          <mxGeometry x="145" y="936" width="534" height="105" as="geometry" />
        </mxCell>
        <mxCell id="zSw2SwVHiKAort44ZvVs-8" style="edgeStyle=orthogonalEdgeStyle;rounded=0;orthogonalLoop=1;jettySize=auto;html=1;exitX=1;exitY=0.5;exitDx=0;exitDy=0;exitPerimeter=0;entryX=0;entryY=0.5;entryDx=0;entryDy=0;" edge="1" parent="1" source="zSw2SwVHiKAort44ZvVs-2" target="zSw2SwVHiKAort44ZvVs-3">
          <mxGeometry relative="1" as="geometry" />
        </mxCell>
        <mxCell id="zSw2SwVHiKAort44ZvVs-2" value="&lt;font style=&quot;font-size: 16px;&quot;&gt;开始&lt;/font&gt;" style="strokeWidth=2;html=1;shape=mxgraph.flowchart.terminator;whiteSpace=wrap;" vertex="1" parent="1">
          <mxGeometry x="62" y="346" width="120" height="60" as="geometry" />
        </mxCell>
        <mxCell id="zSw2SwVHiKAort44ZvVs-9" style="edgeStyle=orthogonalEdgeStyle;rounded=0;orthogonalLoop=1;jettySize=auto;html=1;exitX=1;exitY=0.5;exitDx=0;exitDy=0;entryX=0;entryY=0.5;entryDx=0;entryDy=0;" edge="1" parent="1" source="zSw2SwVHiKAort44ZvVs-3" target="zSw2SwVHiKAort44ZvVs-4">
          <mxGeometry relative="1" as="geometry" />
        </mxCell>
        <mxCell id="zSw2SwVHiKAort44ZvVs-3" value="&lt;span style=&quot;font-size: 16px;&quot;&gt;创建数据源&lt;/span&gt;" style="rounded=1;whiteSpace=wrap;html=1;absoluteArcSize=1;arcSize=14;strokeWidth=2;" vertex="1" parent="1">
          <mxGeometry x="246" y="344" width="135" height="64" as="geometry" />
        </mxCell>
        <mxCell id="zSw2SwVHiKAort44ZvVs-10" style="edgeStyle=orthogonalEdgeStyle;rounded=0;orthogonalLoop=1;jettySize=auto;html=1;exitX=1;exitY=0.5;exitDx=0;exitDy=0;" edge="1" parent="1" source="zSw2SwVHiKAort44ZvVs-4" target="zSw2SwVHiKAort44ZvVs-6">
          <mxGeometry relative="1" as="geometry" />
        </mxCell>
        <mxCell id="zSw2SwVHiKAort44ZvVs-4" value="&lt;span style=&quot;font-size: 16px;&quot;&gt;创建通道配置&lt;/span&gt;" style="rounded=1;whiteSpace=wrap;html=1;absoluteArcSize=1;arcSize=14;strokeWidth=2;" vertex="1" parent="1">
          <mxGeometry x="446" y="344" width="135" height="64" as="geometry" />
        </mxCell>
        <mxCell id="zSw2SwVHiKAort44ZvVs-16" style="edgeStyle=orthogonalEdgeStyle;rounded=0;orthogonalLoop=1;jettySize=auto;html=1;exitX=0.5;exitY=1;exitDx=0;exitDy=0;entryX=0.5;entryY=0;entryDx=0;entryDy=0;" edge="1" parent="1" source="zSw2SwVHiKAort44ZvVs-6" target="zSw2SwVHiKAort44ZvVs-11">
          <mxGeometry relative="1" as="geometry" />
        </mxCell>
        <mxCell id="zSw2SwVHiKAort44ZvVs-6" value="&lt;span style=&quot;font-size: 16px;&quot;&gt;创建任务&lt;/span&gt;" style="rounded=1;whiteSpace=wrap;html=1;absoluteArcSize=1;arcSize=14;strokeWidth=2;" vertex="1" parent="1">
          <mxGeometry x="646" y="344" width="135" height="64" as="geometry" />
        </mxCell>
        <mxCell id="zSw2SwVHiKAort44ZvVs-17" style="edgeStyle=orthogonalEdgeStyle;rounded=0;orthogonalLoop=1;jettySize=auto;html=1;exitX=0;exitY=0.5;exitDx=0;exitDy=0;entryX=1;entryY=0.5;entryDx=0;entryDy=0;" edge="1" parent="1" source="zSw2SwVHiKAort44ZvVs-11" target="zSw2SwVHiKAort44ZvVs-13">
          <mxGeometry relative="1" as="geometry" />
        </mxCell>
        <mxCell id="zSw2SwVHiKAort44ZvVs-11" value="&lt;font style=&quot;font-size: 16px;&quot;&gt;创建调度计划&lt;/font&gt;" style="rounded=1;whiteSpace=wrap;html=1;absoluteArcSize=1;arcSize=14;strokeWidth=2;" vertex="1" parent="1">
          <mxGeometry x="646" y="474" width="135" height="64" as="geometry" />
        </mxCell>
        <mxCell id="zSw2SwVHiKAort44ZvVs-20" style="edgeStyle=orthogonalEdgeStyle;rounded=0;orthogonalLoop=1;jettySize=auto;html=1;exitX=0;exitY=0.5;exitDx=0;exitDy=0;" edge="1" parent="1" source="zSw2SwVHiKAort44ZvVs-13" target="zSw2SwVHiKAort44ZvVs-19">
          <mxGeometry relative="1" as="geometry" />
        </mxCell>
        <mxCell id="zSw2SwVHiKAort44ZvVs-13" value="&lt;span style=&quot;font-size: 16px;&quot;&gt;执行调度计划&lt;/span&gt;" style="rounded=1;whiteSpace=wrap;html=1;absoluteArcSize=1;arcSize=14;strokeWidth=2;" vertex="1" parent="1">
          <mxGeometry x="446" y="474" width="135" height="64" as="geometry" />
        </mxCell>
        <mxCell id="zSw2SwVHiKAort44ZvVs-18" value="&lt;font style=&quot;font-size: 16px;&quot;&gt;结束&lt;/font&gt;" style="strokeWidth=2;html=1;shape=mxgraph.flowchart.terminator;whiteSpace=wrap;" vertex="1" parent="1">
          <mxGeometry x="62" y="476" width="120" height="60" as="geometry" />
        </mxCell>
        <mxCell id="zSw2SwVHiKAort44ZvVs-21" style="edgeStyle=orthogonalEdgeStyle;rounded=0;orthogonalLoop=1;jettySize=auto;html=1;exitX=0;exitY=0.5;exitDx=0;exitDy=0;" edge="1" parent="1" source="zSw2SwVHiKAort44ZvVs-19" target="zSw2SwVHiKAort44ZvVs-18">
          <mxGeometry relative="1" as="geometry" />
        </mxCell>
        <mxCell id="zSw2SwVHiKAort44ZvVs-19" value="&lt;span style=&quot;font-size: 16px;&quot;&gt;数据同步与转化&lt;/span&gt;" style="rounded=1;whiteSpace=wrap;html=1;absoluteArcSize=1;arcSize=14;strokeWidth=2;" vertex="1" parent="1">
          <mxGeometry x="246" y="474" width="135" height="64" as="geometry" />
        </mxCell>
        <mxCell id="zSw2SwVHiKAort44ZvVs-22" value="&lt;font style=&quot;font-size: 16px;&quot;&gt;MySQL&lt;/font&gt;" style="rounded=0;whiteSpace=wrap;html=1;" vertex="1" parent="1">
          <mxGeometry x="185" y="965" width="116" height="58" as="geometry" />
        </mxCell>
        <mxCell id="zSw2SwVHiKAort44ZvVs-48" style="edgeStyle=orthogonalEdgeStyle;rounded=0;orthogonalLoop=1;jettySize=auto;html=1;exitX=0.5;exitY=0;exitDx=0;exitDy=0;entryX=0.5;entryY=1;entryDx=0;entryDy=0;" edge="1" parent="1" source="zSw2SwVHiKAort44ZvVs-23" target="zSw2SwVHiKAort44ZvVs-47">
          <mxGeometry relative="1" as="geometry" />
        </mxCell>
        <mxCell id="zSw2SwVHiKAort44ZvVs-23" value="&lt;font style=&quot;font-size: 16px;&quot;&gt;Restful API&lt;/font&gt;" style="rounded=0;whiteSpace=wrap;html=1;" vertex="1" parent="1">
          <mxGeometry x="519" y="965" width="116" height="58" as="geometry" />
        </mxCell>
        <mxCell id="zSw2SwVHiKAort44ZvVs-24" value="&lt;font style=&quot;font-size: 16px;&quot;&gt;Hive&lt;/font&gt;" style="rounded=0;whiteSpace=wrap;html=1;" vertex="1" parent="1">
          <mxGeometry x="352" y="965" width="116" height="58" as="geometry" />
        </mxCell>
        <mxCell id="zSw2SwVHiKAort44ZvVs-38" style="edgeStyle=orthogonalEdgeStyle;rounded=0;orthogonalLoop=1;jettySize=auto;html=1;exitX=0.5;exitY=0;exitDx=0;exitDy=0;entryX=0.5;entryY=1;entryDx=0;entryDy=0;" edge="1" parent="1" source="zSw2SwVHiKAort44ZvVs-25" target="zSw2SwVHiKAort44ZvVs-27">
          <mxGeometry relative="1" as="geometry" />
        </mxCell>
        <mxCell id="zSw2SwVHiKAort44ZvVs-25" value="&lt;span style=&quot;font-size: 16px;&quot;&gt;在线数据源&lt;/span&gt;" style="rounded=0;whiteSpace=wrap;html=1;" vertex="1" parent="1">
          <mxGeometry x="716" y="965" width="116" height="58" as="geometry" />
        </mxCell>
        <mxCell id="zSw2SwVHiKAort44ZvVs-27" value="&lt;span style=&quot;font-size: 16px;&quot;&gt;Netty客户端&lt;/span&gt;" style="rounded=0;whiteSpace=wrap;html=1;" vertex="1" parent="1">
          <mxGeometry x="716" y="834" width="116" height="58" as="geometry" />
        </mxCell>
        <mxCell id="zSw2SwVHiKAort44ZvVs-30" value="&lt;font style=&quot;font-size: 18px;&quot;&gt;...&lt;/font&gt;" style="text;html=1;align=center;verticalAlign=middle;whiteSpace=wrap;rounded=0;" vertex="1" parent="1">
          <mxGeometry x="459" y="979" width="60" height="30" as="geometry" />
        </mxCell>
        <mxCell id="zSw2SwVHiKAort44ZvVs-31" style="edgeStyle=orthogonalEdgeStyle;rounded=0;orthogonalLoop=1;jettySize=auto;html=1;exitX=0.5;exitY=1;exitDx=0;exitDy=0;" edge="1" parent="1" source="zSw2SwVHiKAort44ZvVs-30" target="zSw2SwVHiKAort44ZvVs-30">
          <mxGeometry relative="1" as="geometry" />
        </mxCell>
        <mxCell id="zSw2SwVHiKAort44ZvVs-53" style="edgeStyle=orthogonalEdgeStyle;rounded=0;orthogonalLoop=1;jettySize=auto;html=1;exitX=0.5;exitY=0;exitDx=0;exitDy=0;" edge="1" parent="1" source="zSw2SwVHiKAort44ZvVs-43">
          <mxGeometry relative="1" as="geometry">
            <mxPoint x="322.5882352941178" y="774.470261517693" as="targetPoint" />
          </mxGeometry>
        </mxCell>
        <mxCell id="zSw2SwVHiKAort44ZvVs-43" value="&lt;font style=&quot;font-size: 16px;&quot;&gt;JDBC连接模块&lt;/font&gt;" style="rounded=0;whiteSpace=wrap;html=1;" vertex="1" parent="1">
          <mxGeometry x="177" y="834" width="291" height="58" as="geometry" />
        </mxCell>
        <mxCell id="zSw2SwVHiKAort44ZvVs-44" style="edgeStyle=orthogonalEdgeStyle;rounded=0;orthogonalLoop=1;jettySize=auto;html=1;exitX=0.5;exitY=0;exitDx=0;exitDy=0;entryX=0.225;entryY=0.968;entryDx=0;entryDy=0;entryPerimeter=0;" edge="1" parent="1" source="zSw2SwVHiKAort44ZvVs-22" target="zSw2SwVHiKAort44ZvVs-43">
          <mxGeometry relative="1" as="geometry" />
        </mxCell>
        <mxCell id="zSw2SwVHiKAort44ZvVs-45" style="edgeStyle=orthogonalEdgeStyle;rounded=0;orthogonalLoop=1;jettySize=auto;html=1;exitX=0.5;exitY=0;exitDx=0;exitDy=0;entryX=0.802;entryY=0.968;entryDx=0;entryDy=0;entryPerimeter=0;" edge="1" parent="1" source="zSw2SwVHiKAort44ZvVs-24" target="zSw2SwVHiKAort44ZvVs-43">
          <mxGeometry relative="1" as="geometry" />
        </mxCell>
        <mxCell id="zSw2SwVHiKAort44ZvVs-47" value="&lt;font style=&quot;font-size: 16px;&quot;&gt;Http客户端&lt;/font&gt;" style="rounded=0;whiteSpace=wrap;html=1;" vertex="1" parent="1">
          <mxGeometry x="519" y="834" width="116" height="58" as="geometry" />
        </mxCell>
        <mxCell id="zSw2SwVHiKAort44ZvVs-49" value="&lt;font style=&quot;font-size: 16px;&quot;&gt;MySQL&lt;/font&gt;" style="rounded=0;whiteSpace=wrap;html=1;" vertex="1" parent="1">
          <mxGeometry x="143" y="712" width="689" height="61" as="geometry" />
        </mxCell>
        <mxCell id="zSw2SwVHiKAort44ZvVs-51" style="edgeStyle=orthogonalEdgeStyle;rounded=0;orthogonalLoop=1;jettySize=auto;html=1;exitX=0.5;exitY=0;exitDx=0;exitDy=0;entryX=0.63;entryY=0.992;entryDx=0;entryDy=0;entryPerimeter=0;" edge="1" parent="1" source="zSw2SwVHiKAort44ZvVs-47" target="zSw2SwVHiKAort44ZvVs-49">
          <mxGeometry relative="1" as="geometry" />
        </mxCell>
        <mxCell id="zSw2SwVHiKAort44ZvVs-52" style="edgeStyle=orthogonalEdgeStyle;rounded=0;orthogonalLoop=1;jettySize=auto;html=1;exitX=0.5;exitY=0;exitDx=0;exitDy=0;entryX=0.916;entryY=0.981;entryDx=0;entryDy=0;entryPerimeter=0;" edge="1" parent="1" source="zSw2SwVHiKAort44ZvVs-27" target="zSw2SwVHiKAort44ZvVs-49">
          <mxGeometry relative="1" as="geometry" />
        </mxCell>
        <mxCell id="zSw2SwVHiKAort44ZvVs-55" value="&lt;font style=&quot;font-size: 16px;&quot;&gt;配置信息&lt;/font&gt;" style="text;html=1;align=center;verticalAlign=middle;whiteSpace=wrap;rounded=0;" vertex="1" parent="1">
          <mxGeometry x="326" y="789" width="92" height="29" as="geometry" />
        </mxCell>
        <mxCell id="zSw2SwVHiKAort44ZvVs-56" value="&lt;font style=&quot;font-size: 16px;&quot;&gt;配置信息&lt;/font&gt;" style="text;html=1;align=center;verticalAlign=middle;whiteSpace=wrap;rounded=0;" vertex="1" parent="1">
          <mxGeometry x="584" y="789" width="92" height="29" as="geometry" />
        </mxCell>
        <mxCell id="zSw2SwVHiKAort44ZvVs-58" value="&lt;font style=&quot;font-size: 16px;&quot;&gt;配置信息&lt;/font&gt;" style="text;html=1;align=center;verticalAlign=middle;whiteSpace=wrap;rounded=0;" vertex="1" parent="1">
          <mxGeometry x="781" y="789" width="92" height="29" as="geometry" />
        </mxCell>
        <mxCell id="zSw2SwVHiKAort44ZvVs-62" value="" style="rounded=0;whiteSpace=wrap;html=1;" vertex="1" parent="1">
          <mxGeometry x="148" y="1465" width="697" height="122" as="geometry" />
        </mxCell>
        <mxCell id="zSw2SwVHiKAort44ZvVs-63" value="&lt;font style=&quot;font-size: 17px;&quot;&gt;数据源层&lt;/font&gt;" style="text;html=1;align=center;verticalAlign=middle;whiteSpace=wrap;rounded=0;" vertex="1" parent="1">
          <mxGeometry x="148" y="1473" width="91" height="31" as="geometry" />
        </mxCell>
        <mxCell id="zSw2SwVHiKAort44ZvVs-64" value="" style="rounded=0;whiteSpace=wrap;html=1;" vertex="1" parent="1">
          <mxGeometry x="214" y="1514" width="121" height="50" as="geometry" />
        </mxCell>
        <mxCell id="zSw2SwVHiKAort44ZvVs-65" value="" style="rounded=0;whiteSpace=wrap;html=1;" vertex="1" parent="1">
          <mxGeometry x="148" y="1228" width="697" height="202" as="geometry" />
        </mxCell>
        <mxCell id="zSw2SwVHiKAort44ZvVs-66" value="&lt;font style=&quot;font-size: 17px;&quot;&gt;数据服务层&lt;/font&gt;" style="text;html=1;align=center;verticalAlign=middle;whiteSpace=wrap;rounded=0;" vertex="1" parent="1">
          <mxGeometry x="155" y="1240" width="91" height="31" as="geometry" />
        </mxCell>
        <mxCell id="zSw2SwVHiKAort44ZvVs-73" value="" style="rounded=0;whiteSpace=wrap;html=1;dashed=1;" vertex="1" parent="1">
          <mxGeometry x="199.5" y="1278" width="319.5" height="130" as="geometry" />
        </mxCell>
        <mxCell id="zSw2SwVHiKAort44ZvVs-72" value="&lt;font style=&quot;font-size: 16px;&quot;&gt;数据转换&lt;/font&gt;" style="rounded=0;whiteSpace=wrap;html=1;" vertex="1" parent="1">
          <mxGeometry x="229" y="1356" width="114" height="36" as="geometry" />
        </mxCell>
        <mxCell id="zSw2SwVHiKAort44ZvVs-68" value="&lt;font style=&quot;font-size: 16px;&quot;&gt;数据同步&lt;/font&gt;" style="rounded=0;whiteSpace=wrap;html=1;" vertex="1" parent="1">
          <mxGeometry x="229" y="1302" width="114" height="36" as="geometry" />
        </mxCell>
        <mxCell id="zSw2SwVHiKAort44ZvVs-76" value="&lt;font style=&quot;font-size: 16px;&quot;&gt;数据同步&lt;/font&gt;" style="rounded=0;whiteSpace=wrap;html=1;" vertex="1" parent="1">
          <mxGeometry x="376" y="1302" width="114" height="36" as="geometry" />
        </mxCell>
      </root>
    </mxGraphModel>
  </diagram>
</mxfile>
